# xmcd
#
# Track frame offsets:
#	183
#	11835
#	26025
#	38370
#	49995
#	61555
#	80980
#	98190
#	109255
#	124688
#	137063
#	152178
#	166435
#	180808
#
# Disc length: 2602 seconds
#
# Revision: 1
# Processed by: cddbd v1.5.2PL0 Copyright (c) Steve Scherf et al.
# Submitted via: audiograbber 1.83.01
#
DISCID=b10a280e
DTITLE=Renate Kern - Das macht diese Welt erst richtig schön
DYEAR=1900
DGENRE=Country
TTITLE0=Laß doch den Sonnenschein
TTITLE1=Du mußt mit den Wimpern klimpern
TTITLE2=An irgendeinen Tag
TTITLE3=Laß mich heute nicht allein
TTITLE4=Alle Blumen brauchen Sonne
TTITLE5=Laß den dummen Kummer
TTITLE6=Das macht diese Welt erst richtig schön
TTITLE7=Er nahm ein anderes Mädchen
TTITLE8=Ich will nach Haus
TTITLE9=Lieber mal weinen vor Glück
TTITLE10=Morgen früh, da lachst du schon wieder
TTITLE11=Die Welt Ist so schön wie im Traum
TTITLE12=Du bist meine Liebe
TTITLE13=Nur wer liebt kann glücklich werden
EXTD=ADD-MCP
EXTT0=
EXTT1=
EXTT2=
EXTT3=
EXTT4=
EXTT5=
EXTT6=
EXTT7=
EXTT8=
EXTT9=
EXTT10=
EXTT11=
EXTT12=
EXTT13=
PLAYORDER=
